<?xml version="1.0" encoding="utf-8"?>
<!-- Generator: Adobe Illustrator 16.0.2, SVG Export Plug-In . SVG Version: 6.00 Build 0)  -->
<!DOCTYPE svg PUBLIC "-//W3C//DTD SVG 1.1//EN" "http://www.w3.org/Graphics/SVG/1.1/DTD/svg11.dtd">
<svg version="1.1" id="Layer_1" xmlns="http://www.w3.org/2000/svg" xmlns:xlink="http://www.w3.org/1999/xlink" x="0px" y="0px"
	 width="382.515px" height="208.192px" viewBox="0 0 382.515 208.192" enable-background="new 0 0 382.515 208.192"
	 xml:space="preserve">
<g>
	<path fill-rule="evenodd" clip-rule="evenodd" fill="#45AED0" d="M254.705,192.977c-2,0-4,0-6,0
		c-5.226-1.592-10.428-1.881-15.591,0.273c-16.03-0.508-32.058-0.336-48.085-0.088c-0.433-1.176-1.403-1.195-2.441-1.195
		c-9.801-0.001-19.603,0.045-29.404-0.021c-0.744-0.006-1.257,0.24-1.443,1c-6.304,0.127-12.611-0.1-18.915,0.115
		c-0.205-0.719-0.694-1.119-1.428-1.105c-13.087,0.262-26.183-0.423-39.262,0.363c-2.207-1.887-4.924-3.145-6.784-5.467
		c0.171-0.289,0.425-0.591,0.404-0.882c-0.826-11.65,1.701-23.219,0.854-34.849c-0.15-2.063,1.768-3.619,0.805-5.65
		c5.645-2.6,11.866-2.288,17.799-3.42c12.092-2.307,24.308-3.949,36.473-5.819c13.656-2.1,27.307-4.274,40.979-6.286
		c11.916-1.754,23.786-3.838,35.694-5.621c13.545-2.03,27.051-4.299,40.598-6.293c12.265-1.805,24.488-3.879,36.763-5.555
		c4.124,0.709,3.138,4.054,3.302,6.684c0.066,1.064-1.143,1.893-1.312,3.035c-0.036,0.543-0.32,0.867-0.853,0.973
		c-2.871,1.053-5.88,1.631-8.774,2.611c-4.426,1.498-7.073,4.369-7.371,9.161c1.214,4.271,1.57,8.804,4.657,12.462
		c1.025,1.217,1.656,2.758,3.18,3.54c3.712,4.232,9.727,5.134,13.476,9.317c-0.685,3.858-0.21,7.735-0.253,11.604
		c-1.271,0.223-2.569,0.225-3.821,0.08c-2.649-0.305-2.262,1.463-2.247,3.033c-1.879,1-1.879,2,0,3
		c0,9.685,1.219,11.821,7.974,13.982c1.308,2.16,3.391,0.482,5.026,1.018c-1.182,2.211-3.364,1.146-4.71,0.877
		c-9.073-1.805-18.206-0.424-27.29-0.877c-4.087-2.293-8.493-0.721-12.728-0.879C260.926,191.985,257.61,190.907,254.705,192.977z"
		/>
	<path fill-rule="evenodd" clip-rule="evenodd" fill="#A5DBE7" d="M296.705,111.977c-7.759,1.332-15.512,2.703-23.278,3.99
		c-12.189,2.02-24.429,3.714-36.61,5.82c-7.169,1.238-14.482,2.174-21.724,3.249c-12.059,1.792-24.087,3.864-36.125,5.74
		c-9.413,1.466-18.884,2.793-28.312,4.261c-9.855,1.534-19.713,3.16-29.563,4.648c-7.541,1.139-15.052,2.715-22.691,3.354
		c-3.595,0.3-7.133,1.271-10.698,1.938c-0.071-19.268,2.311-38.445,2.121-57.715c1.585-3.938,0.644-8.061,0.864-12.1
		c0.115-2.09-0.342-4.256,0.979-6.15c2.704-0.13,5.396-0.172,7.94,0.998c25.395-0.082,50.787-0.007,76.178-0.021
		c0.653,0,1.296,0.197,1.867-0.25c2.617-2.214,5.925,1.316,8.533-1.012c3.042,1.942,6.937,1.773,9.583,0.844
		c4.07-1.429,7.472,0.306,11.165,0.262c23.115,0.314,46.22,0.063,69.326,0.132c0.916,0.003,2.066,0.413,2.443-0.989
		c1.745-0.059,3.508-0.205,5,1c-3.488,11.469-2.479,22.295,4.61,32.246c0.425,0.231,0.85,0.476,1.266,0.724
		C290.469,107.122,295.009,108.428,296.705,111.977z"/>
	<path fill-rule="evenodd" clip-rule="evenodd" fill="#2F9DC6" d="M288.705,150.977c-3.563-3.664-7.102-7.418-6.922-12.975
		c0.044-1.357-1.059-1.918-1.078-3.025c0.725-0.078,1.389-0.544,1.526-1.109c1.323-5.427,5.454-7.15,10.305-7.873
		c2.171-0.324,4.126-0.844,5.169-3.018c4.006-3.32,4.222-7.586,0.105-12.279c-2.445-2.789-4.935-5.643-8.105-7.721
		c-0.453-3.277-2.994-5.524-4.105-8.57c-4.287-11.75-1.187-22.836,2.332-33.946c0.679-2.143,1.925-4.117,1.773-6.484
		c-0.179-1.461,0.132-2.8,1-4c2.119-6.412,4.219-12.832,7-19c2.777-1.551,4.628-4.618,8.119-4.998
		c6.569-0.715,10.899,4.285,12.047,11.887c1.054,6.982-0.101,14.082,1.737,20.945c0.076,0.282,0.313,0.494,0.637,0.652
		c1.287,6.006,5.066,9.935,10.46,12.514c2.876,1.721,6.195,2.85,8,6c5.878,8.363,2.177,15.5-2.957,22.387
		c-0.628,0.844-1.172,1.547-1.043,2.613c0.69,2.176-1.4,3.392-2.268,4.495c-4.437,5.649-3.734,11.495-0.643,16.937
		c2.318,4.08,3.424,8.634,5.91,12.568c-2.731,1.417,0.507,3.049-0.129,4.357c-1.034,2.131-1.065,4.484-1.871,6.643
		c-3.349,2.273-5.662,5.713-9,8c-4.752,0.838-9.021,4.032-14.176,2.832c-0.044-5.627-0.633-11.465-0.293-16.987
		c0.604-9.806-0.016-19.573,0.465-29.341c0.225-4.568-1.13-9.467,3.403-13.512c-1.685-0.24-3.775,1.193-3.505-1.882
		c0.405-4.63,0.161-9.323,0.073-13.988c-0.028-1.522,0.709-3.362-1.567-4.659c-0.742,1.216-0.381,2.51-0.383,3.67
		c-0.025,17.33,0.384,34.676-0.213,51.986c-0.242,7.025,0.497,13.968,0.326,20.964c-0.099,4.022-1.585,4.509-4.811,3.593
		c-5.438-1.543-10.66-3.463-14.776-7.594C290.542,150.35,289.611,148.92,288.705,150.977z"/>
	<path fill-rule="evenodd" clip-rule="evenodd" fill="#F6C359" d="M91.705,68.977c-1.949,3.854-0.66,7.98-0.978,11.97
		c-0.164,2.05,0.324,4.187-1.022,6.03c-10.442,0.209-20.894-0.43-31.326,0.341c-1.292-5.843-1.886-11.768-1.638-18.162
		c-2.266,1.079-3.107,2.315-3.058,4.331c0.235,9.579-0.368,19.168,0.339,28.74c-1.608,2.373-4.075,1.658-6.317,1.75
		c-1.946-9.529-3.308-19.178-5.973-28.559c-1.065-3.748-0.647-7.582,1.112-10.878c3.435-6.433,5.749-13.33,8.854-19.879
		c4.094-8.634,6.065-9.551,16.206-8.864c0.248,0.017,0.533-0.535,0.801-0.821c3.667,0.827,7.333,0.827,11,0
		c0.821,1.661,2.824,0.68,3.343,0.547c4.368-1.12,7.452,0.953,10.274,3.622c3.864,3.654,7.902,7.211,11.229,11.325
		c5.089,6.293,11.888,9.334,19.292,11.448c1.517,0.433,2.937,0.677,3.863,2.058c0.091,2.022,0.212,4.055-1.853,5.329
		c-6.333-0.537-12.663-0.558-18.989,0.014c-4.495-3.451-9.66-5.873-14.774-9.976C91.443,62.979,91.819,66.003,91.705,68.977z"/>
	<path fill-rule="evenodd" clip-rule="evenodd" fill="#3E327A" d="M57.705,86.977c10.667,0,21.333,0,32,0
		c0.072,14.541-0.548,29.045-1.938,43.529c-0.459,4.781-0.065,9.645-0.062,14.471c-1.403,14.299-2.043,28.633-2,43
		c-2.759-0.221-5.573,0.487-8.29-0.482c0.658-5.64,0.25-11.297,0.265-16.943c0.06-22.484-0.054-44.971,0.11-67.455
		c0.024-3.311-0.815-4.334-4.109-4.209c-3.045,0.115-4.985,0.352-5.082,4.229c-0.121,4.865-0.629,9.766-1.887,14.522
		c-0.205,7.327-1.485,14.524-2.771,21.714c-0.208,1.164-0.204,2.293-0.223,3.436c-0.06,3.611,3.943,5.916,7.219,4.197
		c1.185-0.621,0.588-1.729,0.776-2.629c0.578-2.76-1.296-5.811,1-8.361c-0.003,1.332,0.03,2.665-0.018,3.995
		c-0.089,2.478,0.978,5.532-0.405,7.278c-1.487,1.879-4.656,0.45-7.075,0.694c-1.116,0.112-2.45-0.296-2.496,1.536
		c-0.145,5.723-1.234,11.34-2.059,16.977c-1.035,7.072-1.453,14.223-2.792,21.252c-2.372,0.543-4.778,0.111-7.164,0.25
		c0.367-12.367,1.31-24.687,3.015-36.943c0.293-2.107-0.043-3.455-2.761-3.149c-0.981,0.11-2.708,1.192-3.254-0.907
		c1.292-1.453,2.464,0.651,3.917,0.101c1.151-0.437,2.08-0.366,2.119-2.012c0.209-8.851,2.042-17.585,1.964-26.46
		c-0.497-1.516,1.057-3.452-0.954-4.66c-0.035-0.646,0.243-1.103,0.833-1.369c0.856,0.113,1.143-0.377,1.126-1.113
		C56.518,103.28,58.411,95.18,57.705,86.977z"/>
	<path fill-rule="evenodd" clip-rule="evenodd" fill="#F5E4E0" d="M205.705,68.977c-6.333-0.285-12.667,1.743-19,0
		c0-0.333,0-0.667,0-1c3.551-0.89,2.452-4.704,4.236-6.743c2.076-2.373,2.521-5.216,1.764-8.257
		c0.873-0.864,1.127,3.512,2.399,0.238c0.834-2.146,2.078-4.134,3.054-6.234c1.702-3.659,4.299-5.776,8.589-4.962
		c3.793,7.167,6.107,7.098,11.694-0.346c3.75,0.376,7.501,0.537,11.263,0.305c3.41,7.458,4.098,15.709,6.8,23.373
		c0.508,1.439-0.257,1.646-1.429,1.632c-2.457-0.031-4.914-0.007-7.371-0.005c-1.79-0.142-0.24-2.625-2.42-2.895
		c0.075,5.614-3.888,5.008-7.658,4.917C213.655,68.901,209.679,68.977,205.705,68.977z"/>
	<path fill-rule="evenodd" clip-rule="evenodd" fill="#3E317A" d="M229.705,41.977c-4,0-8,0-12,0
		c-1.921-4.682-1.399-12.634,1.196-15.682c1.65-1.938,0.214-3.094-1.152-3.19c-4.776-0.336-8.453-2.866-12.369-5.17
		c-4.212-2.479-5.664-1.436-5.671,3.532c-0.003,1.829,0.354,3.752-0.049,5.469c-0.864,3.683,0.292,6.792,3.536,7.811
		c4.306,1.353,3.406,4.33,3.51,7.231c-4.392-0.817-6.919,1.461-8.641,5.152c-1.212,2.6-2.495,5.167-3.756,7.771
		c-0.969-0.255-0.125-2.083-1.603-1.922c-2.534-6.27-2.95-11.987,2.521-17.37c1.641-1.614,2.387-4.95,0.528-7.885
		c-5.233-8.262,0.131-18.873,8.005-22.288c8.78-3.809,18.187,0.162,22.174,9.359c1.51,3.481,1.766,7.715,0.434,10.4
		c-2.868,5.779-1.477,9.932,2.263,14.222C229.207,40.078,229.357,41.113,229.705,41.977z"/>
	<path fill-rule="evenodd" clip-rule="evenodd" fill="#F47D9E" d="M55.705,117.977c-0.666,9.122-1.412,18.24-1.933,27.371
		c-0.109,1.912-1.429,1.174-2.163,1.713c-1.485,1.091-2.622-1.899-3.904-0.084c-6.149,0-12.299,0-18.45,0
		c1.15-5.105,0.078-10.291,0.137-15.406c0.049-4.186,1.714-8.66-0.407-12.873c-0.094-0.188,0.657-0.947,1.989-1.109
		c4.927-0.603,9.917,0.987,14.73-0.611C48.941,118.28,52.457,116.788,55.705,117.977z"/>
	<path fill-rule="evenodd" clip-rule="evenodd" fill="#44AED0" d="M186.705,67.977c0,0.333,0,0.667,0,1
		c-2.667,1.477-5.333-0.332-8,0c-12.98,0.047-25.962-0.095-38.931,0.071c-2.092,0.658-1.685-0.693-1.196-1.691
		c0.858-1.755,0.957-3.224-0.873-4.38c-0.402-1.175-0.962-2.206-1.103-3.573c-0.376-3.649,0.687-4.621,4.487-4.541
		c13.777,0.29,27.565,0.229,41.345,0.03c3.282-0.048,4.807,0.421,4.345,4.126C186.411,61.962,186.705,64.987,186.705,67.977z"/>
	<path fill-rule="evenodd" clip-rule="evenodd" fill="#3E327A" d="M68.705,24.977c-3.854-1.08-5.16-4.162-4.912-7.568
		c0.397-5.448-1.019-11.399,6.208-14.678c4.702-2.134,9.248-2.5,14.032-2.722c4.795-0.223,5.613,4.42,7.546,7.17
		c1.306,1.858-0.117,4.714-2.875,5.799c-3.366,0.517-8.563,5.072-8.976,8.021c-0.382,2.735-1.815,4.051-4.585,3.988
		C72.999,24.938,70.851,24.977,68.705,24.977z"/>
	<path fill-rule="evenodd" clip-rule="evenodd" fill="#F6C35A" d="M303.705,191.977c-6.627-2.029-8-4.433-8-14
		c-0.02-1.246,0.038-2.076,1.834-2.053c9.293,0.121,18.589,0.139,27.88-0.006c2.193-0.035,2.107,0.9,2.361,2.574
		c0.896,5.896-2.194,9.83-6.075,13.484C315.705,191.977,309.705,191.977,303.705,191.977z"/>
	<path fill-rule="evenodd" clip-rule="evenodd" fill="#8ECAE0" d="M184.705,192.977c16.333,0,32.667,0,49,0
		c4.308,0.662,8.82-1.33,13,1c-80.585,0-161.171,0-241.756,0c-0.333,0-0.689,0.076-0.995-0.014c-1.377-0.41-3.937,1.092-3.953-1.139
		c-0.013-1.847,2.474-0.777,3.752-0.785c15.65-0.097,31.301-0.063,46.952-0.063c3.917,0,7.835,0,11.752,0
		c4.798,0.006,9.597-0.014,14.4,0.01c0.662,0.002,1.187,0.268,1.58,0.799c18.09,0.424,36.18,0.078,54.268,0.191
		c6.333,0,12.667,0,19,0C162.705,192.977,173.705,192.977,184.705,192.977z"/>
	<path fill-rule="evenodd" clip-rule="evenodd" fill="#F37D9E" d="M256.705,66.977c-3.002-2.405-1.837-5.772-1.953-8.804
		c-0.078-2.006,1.63-1.142,2.556-1.159c4.456-0.083,8.915-0.037,13.372-0.038c5.536,0,6.432,1.877,4.314,7.329
		c-0.771,1.984-2.839,2.693-3.289,4.671c-3.907,0.198-7.836-0.397-11.727,0.328C258.551,69.001,258.175,67.219,256.705,66.977z"/>
	<path fill-rule="evenodd" clip-rule="evenodd" fill="#34599B" d="M288.705,150.977c0.747-2.162,1.687-0.844,2.414-0.058
		c4.147,4.478,9.739,6.257,15.284,7.935c2.253,0.682,5.177,0.836,4.315-3.322c-1.038-5.008,2.163-10.582-2.017-15.178
		c2.053-0.754,2.037-2.396,2.033-4.229c-0.049-19.306-0.03-38.612,0.758-57.976c1.781,6.992,0.861,14.195,1.321,21.497
		c1.22,0.828,1.389-1.82,3.283-1.103c-4.454,4.172-3.18,9.479-3.423,14.537c-0.466,9.689,0.353,19.371-0.547,29.121
		c-0.367,3.982,0.078,8.699,0.545,13.055c0.116,1.082,0.597,2.42-1.361,3.18c5.927,1.879,10.447-1.588,15.394-2.459
		c-1.901,2.838-5.154,3.357-8,3.809c-2.02,0.32-3.953,1.077-6,1.191c-0.779-0.004-1.566,0.056-2.305-0.285
		c-2.735-1.4-5.964-0.299-8.695-1.715C297.069,156.801,292.447,154.604,288.705,150.977z"/>
	<path fill-rule="evenodd" clip-rule="evenodd" fill="#F4ACBF" d="M68.705,24.977c2.151-0.001,4.304-0.054,6.453,0.01
		c2.735,0.081,4.269-1.125,4.548-3.891c0.546-5.414,5.278-6.21,8.999-8.119c-1.635,1.305-2.929,2.646-1.583,4.978
		c1.404,2.433,0.452,5.159,0.549,7.729c0.063,1.651-1.743,3.506-3.129,3.232c-5.94-1.172-4.842,2.782-4.837,6.062
		c-3.667,0.808-7.333,0.808-11,0C68.705,31.643,68.705,28.31,68.705,24.977z"/>
	<path fill-rule="evenodd" clip-rule="evenodd" fill="#95D2E3" d="M199.608,200.977c-31.072,0-62.142,0.008-93.211-0.039
		c-0.906-0.002-2.701,0.881-2.53-1.156c0.118-1.396,1.575-0.779,2.431-0.779c29.923-0.029,59.847-0.014,89.77-0.053
		C197.678,198.948,199.035,199.016,199.608,200.977z"/>
	<path fill-rule="evenodd" clip-rule="evenodd" fill="#89CAE0" d="M192.216,207.977c-11.993,0-23.985,0.031-35.977-0.053
		c-1.123-0.008-3.177,0.98-3.312-0.822c-0.167-2.23,2.015-1.063,3.04-1.066c24.15-0.076,48.302-0.076,72.452,0.002
		c1.029,0.002,3.205-1.18,3.063,1.045c-0.116,1.844-2.178,0.832-3.291,0.84C216.2,208.008,204.208,207.977,192.216,207.977z"/>
	<path fill-rule="evenodd" clip-rule="evenodd" fill="#89CAE0" d="M97.447,207.977c-8.992,0-17.985,0.031-26.977-0.047
		c-0.903-0.008-2.688,0.949-2.607-1.084c0.058-1.467,1.527-0.842,2.373-0.842c18.318-0.033,36.636-0.033,54.954,0
		c0.843,0,2.311-0.627,2.358,0.857c0.065,2.059-1.735,1.057-2.625,1.064C115.765,208.01,106.606,207.977,97.447,207.977z"/>
	<path fill-rule="evenodd" clip-rule="evenodd" fill="#95D2E3" d="M213.205,200.938c4.454-2.893,56.64-2.568,59.529,0
		C253.019,200.938,233.45,200.938,213.205,200.938z"/>
	<path fill-rule="evenodd" clip-rule="evenodd" fill="#94CAE1" d="M338.705,191.977c13.62,0,27.241-0.029,40.861,0.057
		c1.004,0.008,3.133-1.121,2.937,1.182c-0.131,1.529-1.936,0.717-2.937,0.721c-13.62,0.061-27.241,0.041-40.861,0.041
		C338.705,193.309,338.705,192.643,338.705,191.977z"/>
	<path fill-rule="evenodd" clip-rule="evenodd" fill="#5E588D" d="M258.705,68.977c4.333,0,8.667,0,13,0c2.333,0,4.667,0,7,0
		c-0.236,1.564-1.399,0.979-2.296,0.979c-22.803,0.003-45.605,0.003-68.408,0c-0.897,0-2.06,0.584-2.296-0.979
		c4.162,0,8.324,0.051,12.484-0.016c3.452-0.055,8.119,1.568,6.583-4.854c3.05-0.257,0.79,2.961,2.932,2.87
		c-0.016,0.682,0.317,1.016,1,1c0.884,1.914,2.598,0.931,3.876,0.946C241.288,69.026,249.997,68.977,258.705,68.977z"/>
	<path fill-rule="evenodd" clip-rule="evenodd" fill="#495B95" d="M289.705,53.977c-0.815,6.532-3.972,12.4-5.116,18.901
		c-1.811,10.289-1.63,19.953,5.063,28.627c0.243,0.315,0.045,0.974,0.053,1.473c-7.384-7.123-8.513-16.155-7.664-25.699
		c0.219-2.463,1.092-4.869,1.664-7.301c1.309-4.551,2.645-9.095,3.909-13.658C287.94,55.141,288.471,54.279,289.705,53.977z"/>
	<path fill-rule="evenodd" clip-rule="evenodd" fill="#F6C252" d="M295.705,174.977c-0.293-5.586,4-2,6-3
		c1.781,0.09,3.581-0.217,5.347,0.243c4.347,1.743,8.868,0.358,13.295,0.721c2.438,0.2,4.904,0.036,7.358,0.036
		c0.302,2.973-1.919,1.965-3.296,1.973C314.841,175.002,305.273,174.977,295.705,174.977z"/>
	<path fill-rule="evenodd" clip-rule="evenodd" fill="#43ACCF" d="M264.705,31.977c-2.282-0.694-2.844-3.064-3.73-4.684
		c-1.084-1.98-0.41-4.531,1.626-6.258c2.064-1.751,3.755-0.502,5.337,0.72c2.077,1.604,2.678,3.51,0.844,5.803
		c-1.119,1.398-2.057,2.941-3.076,4.419c-0.176-1.599,0.354-3.247-0.445-5.289C264.352,28.663,264.87,30.366,264.705,31.977z"/>
	<path fill-rule="evenodd" clip-rule="evenodd" fill="#4E5B95" d="M320.705,59.977c-1.906-1.921-2.193-4.377-1.968-6.847
		c0.51-5.565-0.467-11.037-1.127-16.489c-0.541-4.471-2.488-8.653-7.181-10.317c-4.216-1.495-7.793,0.188-10.829,3.235
		c-0.552,0.553-1.26,0.95-1.896,1.418c1.357-4.981,5.772-6.497,9.782-6.748c3.923-0.246,7.483,2.184,9.312,6.264
		c1.9,4.243,2.955,8.642,2.901,13.29c-0.064,5.491-0.179,10.983,2.005,16.194C321.372,59.977,321.038,59.977,320.705,59.977z"/>
	<path fill-rule="evenodd" clip-rule="evenodd" fill="#45AFD0" d="M270.705,36.977c0.359-1.708-0.811-3.633,0.693-5.17
		c1.46-1.492,2.801-3.729,5.24-2.8c1.897,0.722,3.969,2.193,3.965,4.463c-0.003,2.472-1.634,4.413-4.1,5.101
		c-1.52,0.423-3.194,0.29-4.799,0.406c0.65-2.052,3.085-2.723,3.848-4.896C272.971,33.643,272.665,36.702,270.705,36.977z"/>
	<path fill-rule="evenodd" clip-rule="evenodd" fill="#F4ABBF" d="M54.705,112.977c0,0.333,0,0.666,0,1c-3.048,2.715-5.34-0.612-8-1
		c0.985-2.928,2.319-5.816,1-9c2.049-0.041,4.178,0.402,6-1C52.938,106.42,55.011,109.579,54.705,112.977z"/>
	<path fill-rule="evenodd" clip-rule="evenodd" fill="#F1AABB" d="M137.705,62.977c3.126,2,0.709,4,0,6c-3.667,0-7.333,0-11,0
		c1.206-1.492,1.059-3.255,1-5C131.08,64.06,134.197,61.571,137.705,62.977z"/>
	<path fill-rule="evenodd" clip-rule="evenodd" fill="#F47E9E" d="M265.705,52.977c2.817,0,5.635,0.029,8.451-0.017
		c0.952-0.015,1.549,0.153,1.568,1.27c0.019,1.121-0.146,1.801-1.571,1.784c-5.965-0.071-11.932-0.071-17.896,0
		c-1.426,0.017-1.59-0.663-1.571-1.784c0.02-1.116,0.616-1.285,1.568-1.27c2.816,0.045,5.634,0.017,8.451,0.017
		C265.038,52.977,265.372,52.977,265.705,52.977z"/>
	<path fill-rule="evenodd" clip-rule="evenodd" fill="#81849A" d="M327.705,172.977c-6.247-0.007-12.494-0.014-18.741-0.02
		c-0.896,0-2.032,0.559-2.259-0.98c3.584-0.541,4.479-2.783,4.037-6.076c-0.216-1.613-0.037-3.281-0.037-4.924c0.667,0,1.333,0,2,0
		c0,9.968,0,9.957,10.161,10.01C324.723,170.996,326.932,170.277,327.705,172.977z"/>
	<path fill-rule="evenodd" clip-rule="evenodd" fill="#96CDDF" d="M47.044,200.942c4.61-2.77,26.923-2.426,29.679,0
		C66.971,200.942,57.378,200.942,47.044,200.942z"/>
	<path fill-rule="evenodd" clip-rule="evenodd" fill="#838BA3" d="M303.705,191.977c6,0,12,0,18,0
		c2.968,0.002,5.936-0.004,8.903,0.014c0.751,0.006,1.841-0.354,1.972,0.768c0.183,1.574-1.109,1.229-2.019,1.201
		c-7.291-0.211-14.634,0.734-21.856-0.982C307.096,192.35,304.982,194.256,303.705,191.977z"/>
	<path fill-rule="evenodd" clip-rule="evenodd" fill="#50548E" d="M265.705,52.977c-0.333,0-0.667,0-1,0
		c0.646-2.438-0.705-4.209-2-6c1.759,0.207,2.096-0.595,2.037-2.267c-0.149-4.239-0.042-8.488-0.037-12.733c0-1.605,0-3.21,0-4.815
		c0.333-0.012,0.667-0.024,1-0.036c0,1.617,0,3.234,0,4.852c0,3.2,0,6.399,0,9.955c2.093-1.351,3.817-2.853,5-4.955
		c1.973-0.254,2.254-3.363,4.977-2.839c-1.409,1.715-2.693,3.277-3.977,4.839C265.81,41.974,265.023,47.161,265.705,52.977z"/>
	<path fill-rule="evenodd" clip-rule="evenodd" fill="#E5799C" d="M62.705,191.977c-4,0-8,0-12,0c-0.509-1.334-1.153-2.667,0-4
		c2.333,0,4.667,0,7,0C59.206,189.516,62.589,188.704,62.705,191.977z"/>
	<path fill-rule="evenodd" clip-rule="evenodd" fill="#2C67A9" d="M254.705,192.977c3.401-2.291,7.199-0.883,10.75-0.857
		c3.725,0.025,7.683-1.524,11.25,0.857C269.372,194.629,262.038,194.629,254.705,192.977z"/>
	<path fill-rule="evenodd" clip-rule="evenodd" fill="#47AED0" d="M257.705,42.977c-1.702,0.467-3.18-0.421-4.446-1.184
		c-1.131-0.681-2.917-1.569-2.46-3.294c0.431-1.629,1.804-3.144,3.454-3.354c1.629-0.208,2.926,0.909,3.871,2.571
		c0.659,1.158,0.42,2.179,0.581,3.261c-0.989,0.107-1.34-1.524-2.759-0.784C255.87,41.457,257.736,41.726,257.705,42.977z"/>
	<path fill-rule="evenodd" clip-rule="evenodd" fill="#4F5B95" d="M334.705,102.977c0.338-3.328,3.073-5.318,4.608-7.961
		c3.47-5.971,2.873-11.479-0.608-17.039c4.462,3.732,5.649,9.129,2.729,15.523C339.837,96.999,338.457,100.901,334.705,102.977z"/>
	<path fill-rule="evenodd" clip-rule="evenodd" fill="#F2F2F1" d="M46.705,112.977c2.668,0.323,4.932,3.876,8,1
		c2.19,0.869,0.48,2.713,1,4c-3.241-1.262-6.773,0.402-10-1C45.525,115.515,45.836,114.176,46.705,112.977z"/>
	<path fill-rule="evenodd" clip-rule="evenodd" fill="#F5E4E0" d="M258.705,68.977c-9.078,0-18.156,0.025-27.233-0.042
		c-0.937-0.007-2.415,0.955-2.767-0.958c8.412,0,16.824,0.027,25.236-0.042c0.936-0.007,2.413,0.954,2.764-0.958
		C257.782,67.232,258.449,67.899,258.705,68.977z"/>
	<path fill-rule="evenodd" clip-rule="evenodd" fill="#495D97" d="M297.705,30.977c-2.333,6.333-4.667,12.667-7,19
		c-1.606-2.868,0.316-5.438,1.116-7.842C293.14,38.17,294.07,33.798,297.705,30.977z"/>
	<path fill-rule="evenodd" clip-rule="evenodd" fill="#51568F" d="M320.705,59.977c0.333,0,0.667,0,1,0
		c0.756,5.683,6.575,7.569,9,12C325.813,69.275,321.423,66.155,320.705,59.977z"/>
	<path fill-rule="evenodd" clip-rule="evenodd" fill="#57699C" d="M335.705,147.977c1.679-3.483,0.848-7.422,2-11
		C339.559,141.102,339.203,144.825,335.705,147.977z"/>
	<path fill-rule="evenodd" clip-rule="evenodd" fill="#4B5C95" d="M326.705,155.977c3-2.667,6-5.334,9-8
		C334.127,152.244,331.193,154.985,326.705,155.977z"/>
	<path fill-rule="evenodd" clip-rule="evenodd" fill="#2C67A8" d="M246.705,193.977c-4.178-2.355-8.694-0.309-13-1
		c5-1.637,10-1.637,15,0C248.038,193.309,247.372,193.643,246.705,193.977z"/>
	<path fill-rule="evenodd" clip-rule="evenodd" fill="#53568F" d="M257.705,42.977c-0.637-0.897-1.273-1.794-1.902-2.682
		c1.279-1.234,1.852,0.771,2.902,0.682c0.661,2.448,4.238,2.952,4,6C261.038,45.643,259.372,44.31,257.705,42.977z"/>
	<path fill-rule="evenodd" clip-rule="evenodd" fill="#838BA3" d="M338.705,191.977c0,0.666,0,1.332,0,2
		c-1.575-0.711-4.599,1.475-4.679-1.254C333.978,191.088,337.086,192.438,338.705,191.977z"/>
	<path fill-rule="evenodd" clip-rule="evenodd" fill="#B8DCE5" d="M279.541,125.075c-40.142,6.334-80.284,12.67-120.426,19.004
		c-0.081-0.494-0.161-0.989-0.241-1.484c40.188-6.366,80.375-12.733,120.563-19.1C279.472,124.021,279.506,124.547,279.541,125.075z
		"/>
	<path fill-rule="evenodd" clip-rule="evenodd" fill="#B1D9E5" d="M198.64,144.857c23.962-3.771,47.923-7.542,71.885-11.313
		c0.082,0.518,0.163,1.035,0.245,1.553c-23.962,3.771-47.924,7.543-71.886,11.313C198.803,145.892,198.721,145.375,198.64,144.857z"
		/>
	<path fill-rule="evenodd" clip-rule="evenodd" fill="#F0F6F7" d="M310.705,160.977c0,1.618-0.241,3.282,0.049,4.847
		c0.645,3.468-0.502,5.546-4.049,6.153c-1.667,0-3.333,0-5,0c0-4.334,0-8.667,0-13C304.39,161.057,308.064,158.693,310.705,160.977z
		"/>
	<path fill-rule="evenodd" clip-rule="evenodd" fill="#2C67A9" d="M132.705,192.977c-17.075,0-34.15,0.035-51.224-0.076
		c-1.193-0.008-3.01,1.27-3.776-0.924c4.333,0,8.667,0,13,0c12.909-0.001,25.819-0.035,38.728,0.059
		C130.483,192.043,132.16,190.859,132.705,192.977z"/>
	<path fill-rule="evenodd" clip-rule="evenodd" fill="#E6789C" d="M90.705,191.977c-4.333,0-8.667,0-13,0c0-1.334,0-2.667,0-4
		c2.667,0,5.333,0,8,0C87.689,188.913,89.781,189.715,90.705,191.977z"/>
	<path fill-rule="evenodd" clip-rule="evenodd" fill="#404F90" d="M289.705,102.977c3.871,3.378,8.031,6.425,10.119,11.471
		c1.473,3.557,1.724,6.459-2.119,8.529c1.648-3.848,2.609-7.632-1-11C295.095,108.413,290.42,107.235,289.705,102.977z"/>
	<path fill-rule="evenodd" clip-rule="evenodd" fill="#2C67A9" d="M184.705,192.977c-11,0-22,0-33,0
		C162.705,191.327,173.705,191.327,184.705,192.977z"/>
	<path fill-rule="evenodd" clip-rule="evenodd" fill="#385093" d="M297.705,122.977c-0.91,2.223-2.937,2.645-4.954,2.977
		c-4.915,0.809-9.197,2.371-10.556,7.941c-0.111,0.455-0.976,0.725-1.49,1.082c0.339-4.663,2.665-7.709,7.222-9.021
		C291.201,125.014,294.446,123.973,297.705,122.977z"/>
	<path fill-rule="evenodd" clip-rule="evenodd" fill="#5A558D" d="M126.705,68.977c3.667,0,7.333,0,11,0c13.667,0,27.333,0,41,0
		c-0.968,2.3-2.909,0.92-4.281,0.926c-25.239,0.102-50.479,0.074-75.719,0.074c2.084-2.077,4.687-0.524,7-1
		C112.705,68.977,119.705,68.977,126.705,68.977z"/>
	<path fill-rule="evenodd" clip-rule="evenodd" fill="#EFF5F5" d="M105.705,68.977c-2.315,0.46-4.911-1.044-7,1
		c-2.151-1.606-4.642-0.841-7-1c0-1.149-0.124-2.316,0.028-3.445c0.247-1.835-1.068-4.417,0.801-5.267
		c0.941-0.428,3.229,1.478,4.57,2.698C99.728,65.35,103.622,65.869,105.705,68.977z"/>
	<path fill-rule="evenodd" clip-rule="evenodd" fill="#F1F5F6" d="M54.705,112.977c0.311-3.398-1.777-6.557-1-10
		c0-9.488,0.088-18.977-0.063-28.463c-0.038-2.404,0.438-4.17,3.249-5.562c-0.958,6.273,0.978,12.065,0.813,18.024
		c0.74,8.113-1.215,16.119-0.951,24.204C56.813,112.981,55.917,112.987,54.705,112.977z"/>
	<path fill-rule="evenodd" clip-rule="evenodd" fill="#F0F7F7" d="M77.705,187.977c0,1.333,0,2.666,0,4c-5,0-10,0-15,0
		c-0.136-3.246-3.496-2.465-5-4c1-6.914,2.069-13.817,2.979-20.742c0.771-5.869,1.475-11.752,1.958-17.65
		c0.155-1.891,1.127-1.528,2.272-1.624c7.792-0.649,7.791-0.667,7.791-8.492c0-1.163,0-2.327,0-3.491
		c0-4.414,0.005-8.828-0.001-13.242c-0.008-5.848-0.011-5.848-5.999-4.758c0.854-5.021,2.218-10.013,1.939-15.133
		c-0.255-4.689,2.896-3.557,5.558-3.936c3.428-0.486,3.569,1.146,3.561,3.885C77.669,131.188,77.705,159.583,77.705,187.977z"/>
	<path fill-rule="evenodd" clip-rule="evenodd" fill="#F27D9E" d="M66.705,117.977c5.956-1.309,6.003-1.27,6,4.608
		c-0.002,4.464,0,8.927,0,13.392c-2.318,2.51-0.953,5.557-0.861,8.247c0.134,3.924-2.362,2.655-4.194,2.72
		c-1.948,0.07-4.519,0.928-3.972-2.83c0.983-6.758,1.829-13.536,2.666-20.313C66.58,121.874,66.59,119.918,66.705,117.977z"/>
	<path fill-rule="evenodd" clip-rule="evenodd" fill="#F4ACC0" d="M206.705,41.977c0.556-3.377-0.122-5.832-3.748-7.396
		c-3.152-1.359-4.217-4.143-3.227-7.798c0.542-1.999,0.191-4.306-0.061-6.438c-0.547-4.619,2.624-4.051,4.768-2.897
		c4.396,2.366,8.363,5.486,13.682,5.721c0.744,0.033,2.578,1.658,1.167,2.497c-4.407,2.617-2.261,6.641-2.456,10.034
		c-0.116,2.019-1.236,4.466,0.875,6.278c-1.367,2.18-1.807,5.083-5.5,5.083S208.072,44.156,206.705,41.977z"/>
</g>
</svg>
