<?xml version="1.0" encoding="utf-8"?>
<!-- Generator: Adobe Illustrator 16.0.2, SVG Export Plug-In . SVG Version: 6.00 Build 0)  -->
<!DOCTYPE svg PUBLIC "-//W3C//DTD SVG 1.1//EN" "http://www.w3.org/Graphics/SVG/1.1/DTD/svg11.dtd">
<svg version="1.1" id="Layer_1" xmlns="http://www.w3.org/2000/svg" xmlns:xlink="http://www.w3.org/1999/xlink" x="0px" y="0px"
	 width="512px" height="512px" viewBox="0 0 512 512" enable-background="new 0 0 512 512" xml:space="preserve">
<g>
	<path fill="none" d="M372.315,242.323c-0.004,0-0.009,0-0.013,0H126.607c-0.004,0-0.009,0-0.013,0
		c-14.457,0.007-26.216,11.765-26.216,26.216v184.279c0,14.456,11.766,26.218,26.229,26.218h245.696
		c14.455,0,26.216-11.762,26.216-26.218l-0.001-184.279C398.518,254.087,386.764,242.33,372.315,242.323z M264.2,383.654v48.687
		c0,8.134-6.618,14.751-14.753,14.751c-8.126,0-14.737-6.617-14.737-14.751v-48.683c-23.572-6.479-40.944-28.086-40.944-53.688
		c0-30.709,24.979-55.693,55.682-55.693c30.71,0,55.694,24.984,55.694,55.693C305.142,355.567,287.771,377.172,264.2,383.654z"/>
	<path fill="none" d="M357.574,145.679c0-59.615-48.506-108.115-108.128-108.115c-59.614,0-108.113,48.5-108.113,108.115v67.172
		h216.241V145.679z"/>
	<path fill="none" d="M249.448,303.755c-14.456,0-26.216,11.762-26.216,26.218c0,14.448,11.76,26.203,26.216,26.203
		c14.456,0,26.218-11.755,26.219-26.203C275.666,315.517,263.905,303.755,249.448,303.755z"/>
	<path fill="#848484" d="M411.682,229.18c-6.954-6.954-15.42-11.829-24.645-14.349v-69.153c0-36.693-14.326-71.228-40.342-97.243
		C320.679,22.42,286.143,8.093,249.448,8.093c-75.868,0-137.592,61.721-137.592,137.586v69.168
		C88.277,221.33,70.9,242.938,70.9,268.539v184.279c0,30.709,24.99,55.692,55.707,55.692h245.695
		c30.717,0,55.706-24.983,55.706-55.692V268.539C428.009,253.686,422.21,239.708,411.682,229.18z M141.333,145.679
		c0-59.615,48.5-108.115,108.113-108.115c59.622,0,108.128,48.5,108.128,108.115v67.172H141.333V145.679z M372.303,479.036H126.607
		c-14.462,0-26.229-11.762-26.229-26.218V268.539c0-14.452,11.759-26.209,26.216-26.216c0.004,0,0.008,0,0.013,0h245.695
		c0.004,0,0.009,0,0.013,0c14.449,0.007,26.203,11.765,26.203,26.216l0.001,184.279
		C398.519,467.274,386.758,479.036,372.303,479.036z"/>
	<path fill="#848484" d="M249.448,274.277c-30.703,0-55.682,24.984-55.682,55.693c0,25.602,17.373,47.209,40.944,53.688v48.683
		c0,8.134,6.611,14.751,14.737,14.751c8.135,0,14.753-6.617,14.753-14.751v-48.687c23.57-6.482,40.941-28.087,40.941-53.684
		C305.142,299.262,280.157,274.277,249.448,274.277z M249.448,356.176c-14.456,0-26.216-11.755-26.216-26.203
		c0-14.456,11.76-26.218,26.216-26.218c14.457,0,26.219,11.762,26.219,26.218C275.665,344.421,263.904,356.176,249.448,356.176z"/>
</g>
</svg>
