<?xml version="1.0" encoding="utf-8"?>
<!-- Generator: Adobe Illustrator 16.0.2, SVG Export Plug-In . SVG Version: 6.00 Build 0)  -->
<!DOCTYPE svg PUBLIC "-//W3C//DTD SVG 1.1//EN" "http://www.w3.org/Graphics/SVG/1.1/DTD/svg11.dtd">
<svg version="1.1" id="Layer_1" xmlns="http://www.w3.org/2000/svg" xmlns:xlink="http://www.w3.org/1999/xlink" x="0px" y="0px"
	 width="512px" height="512px" viewBox="555.114 -23.535 512 512" enable-background="new 555.114 -23.535 512 512"
	 xml:space="preserve">
<g>
	<path fill="#848484" d="M807.986,223.102c32.771,0,61.13-12.138,84.306-36.087c23.173-23.951,34.926-53.255,34.926-87.109
		c0-33.843-11.753-63.146-34.926-87.104c-23.174-23.951-51.535-36.086-84.306-36.086c-32.759,0-61.12,12.136-84.306,36.093
		c-23.172,23.951-34.924,53.248-34.924,87.096c0,33.854,11.752,63.166,34.924,87.11
		C746.877,210.958,775.239,223.102,807.986,223.102z M744.202,34c17.793-18.379,38.647-27.309,63.783-27.309
		S854.001,15.621,871.768,34c17.798,18.387,26.438,39.939,26.438,65.905c0,25.973-8.641,47.526-26.438,65.913
		c-17.767,18.379-38.646,27.309-63.782,27.309c-25.138,0-45.99-8.929-63.783-27.309c-17.795-18.381-26.436-39.94-26.436-65.913
		C717.767,73.939,726.407,52.385,744.202,34z"/>
	<path fill="#848484" d="M1016.606,370.024c-0.662-9.956-2.015-20.834-3.989-32.321c-2.025-11.561-4.612-22.493-7.714-32.476
		c-3.195-10.354-7.557-20.547-12.924-30.32c-5.597-10.146-12.146-18.979-19.503-26.255c-7.683-7.599-17.104-13.724-27.989-18.176
		c-10.86-4.439-22.895-6.685-35.755-6.685c-5.06,0-9.942,2.141-19.386,8.489c-5.802,3.918-12.608,8.442-20.178,13.446
		c-6.488,4.269-15.271,8.272-26.119,11.894c-10.593,3.537-21.337,5.333-31.953,5.333c-10.604,0-21.353-1.796-31.944-5.333
		c-10.834-3.623-19.627-7.619-26.104-11.889c-7.52-4.966-14.315-9.488-20.215-13.46c-9.421-6.343-14.301-8.488-19.349-8.488
		c-12.877,0-24.907,2.252-35.769,6.689c-10.885,4.451-20.292,10.568-28.004,18.19c-7.354,7.27-13.905,16.096-19.49,26.241
		c-5.352,9.776-9.714,19.969-12.925,30.32c-3.099,9.982-5.686,20.915-7.688,32.479c-2,11.483-3.351,22.335-4.014,32.346
		c-0.663,9.745-0.981,19.914-0.981,30.188c0,26.709,8.195,48.336,24.412,64.271c16.007,15.727,37.168,23.708,62.916,23.708h238.346
		c25.736,0,46.906-7.979,62.904-23.708c16.213-15.935,24.422-37.562,24.422-64.271
		C1017.614,389.939,1017.281,379.771,1016.606,370.024z M973.193,442.779c-10.566,10.404-24.615,15.463-42.905,15.463H691.942
		c-18.305,0-32.352-5.057-42.917-15.463c-10.362-10.195-15.41-24.103-15.41-42.541c0-9.563,0.305-19.045,0.931-28.131
		c0.601-8.902,1.811-18.704,3.619-29.106c1.798-10.274,4.055-19.915,6.769-28.659c2.602-8.354,6.131-16.648,10.516-24.628
		c4.193-7.613,9.013-14.14,14.327-19.401c4.984-4.92,11.257-8.943,18.634-11.967c6.82-2.792,14.52-4.32,22.832-4.557
		c1.02,0.559,2.831,1.625,5.761,3.601c5.968,4.02,12.849,8.596,20.445,13.619c8.565,5.638,19.604,10.733,32.784,15.12
		c13.484,4.516,27.226,6.794,40.864,6.794c13.652,0,27.405-2.278,40.876-6.771c13.193-4.41,24.218-9.51,32.798-15.159
		c7.774-5.138,14.457-9.582,20.419-13.607c2.932-1.968,4.741-3.042,5.763-3.601c8.338,0.237,16.036,1.764,22.84,4.557
		c7.395,3.023,13.665,7.054,18.636,11.967c5.314,5.262,10.145,11.788,14.328,19.401c4.385,7.979,7.928,16.277,10.515,24.626
		c2.727,8.746,4.982,18.387,6.768,28.661c1.811,10.429,3.034,20.229,3.645,29.104v0.025c0.61,9.036,0.919,18.491,0.919,28.107
		C988.603,418.677,983.57,432.584,973.193,442.779z"/>
</g>
</svg>
