<?xml version="1.0" encoding="utf-8"?>
<!-- Generator: Adobe Illustrator 16.0.2, SVG Export Plug-In . SVG Version: 6.00 Build 0)  -->
<!DOCTYPE svg PUBLIC "-//W3C//DTD SVG 1.1//EN" "http://www.w3.org/Graphics/SVG/1.1/DTD/svg11.dtd">
<svg version="1.1" id="Layer_1" xmlns="http://www.w3.org/2000/svg" xmlns:xlink="http://www.w3.org/1999/xlink" x="0px" y="0px"
	 width="512px" height="512px" viewBox="0 0 512 512" enable-background="new 0 0 512 512" xml:space="preserve">
<g>
	<g>
		<g>
			<path fill="#848484" d="M450.024,112.382L345.452,7.811c-1.956-1.961-4.622-3.057-7.396-3.057H118.469
				c-23.057,0-41.821,18.751-41.821,41.821V464.84c0,23.071,18.765,41.828,41.827,41.828h292.776
				c23.063,0,41.827-18.757,41.827-41.828V119.771C453.079,116.989,451.979,114.336,450.024,112.382z M348.521,40.448l68.873,68.864
				h-47.962c-11.539,0-20.911-9.382-20.911-20.903V40.448L348.521,40.448z M432.177,464.84c0,11.536-9.383,20.917-20.925,20.917
				H118.476c-11.541,0-20.917-9.381-20.917-20.917V46.575c0-11.529,9.375-20.917,20.917-20.917h209.131v62.751
				c0,23.057,18.77,41.813,41.825,41.813h62.745V464.84z"/>
			<path fill="#848484" d="M379.884,297.539H233.493c-5.78,0-10.458,4.676-10.458,10.456c0,5.782,4.678,10.459,10.458,10.459
				h146.391c5.787,0,10.459-4.677,10.459-10.459C390.343,302.215,385.671,297.539,379.884,297.539z"/>
			<path fill="#848484" d="M149.844,130.222h125.475c5.774,0,10.459-4.671,10.459-10.452c0-5.774-4.685-10.458-10.459-10.458
				H149.844c-5.786,0-10.464,4.685-10.464,10.458C139.38,125.551,144.058,130.222,149.844,130.222z"/>
			<path fill="#848484" d="M379.884,234.793h-230.04c-5.786,0-10.464,4.678-10.464,10.465c0,5.774,4.678,10.453,10.464,10.453
				h230.04c5.787,0,10.459-4.679,10.459-10.453C390.343,239.472,385.671,234.793,379.884,234.793z"/>
			<path fill="#848484" d="M139.38,182.515c0,5.78,4.678,10.452,10.464,10.452h230.04c5.787,0,10.459-4.672,10.459-10.452
				c0-5.787-4.672-10.465-10.459-10.465h-230.04C144.058,172.056,139.38,176.728,139.38,182.515z"/>
			<path fill="#848484" d="M288.899,384.191c-15.368,15.138-34.759,32.182-42.437,37.373c-1.82-4.115-3.883-10.996-5.126-15.176
				c-4.249-14.072-7.581-25.197-18.302-25.197c-9.163,0-13.291,8.375-19.547,21.058c-3.057,6.216-9.412,19.142-11.714,20.758
				c-2.273-0.225-6.146-2.877-10.426-6.858c11.535-14.873,20.775-32.111,20.775-45.414c0-22.858-19.23-31.368-31.369-31.368
				c-12.336,0-31.375,17.963-31.375,41.825c0,10.58,5.856,23.643,14.181,35.113c-3.313,3.312-6.677,6.307-9.983,8.806
				c-4.62,3.459-5.557,10.016-2.108,14.63c2.056,2.747,5.197,4.19,8.375,4.19c2.173,0,4.384-0.687,6.262-2.096
				c3.62-2.705,7.497-6.103,11.407-9.991c8.19,7.3,16.885,12.087,24.152,12.087c14.125,0,22.525-16.087,29.824-30.89
				c4.813,15.981,9.473,30.89,22.469,30.89c3.493,0,14.079,0,59.61-44.827c4.133-4.062,4.165-10.678,0.128-14.791
				C299.651,380.18,293.026,380.167,288.899,384.191z M167.563,399.73c-4.242-6.467-7.267-13.188-7.267-18.539
				c0-12.758,9.355-20.23,10.458-20.91c1.729,0,10.446,0.494,10.446,10.453C181.201,377.398,175.574,388.65,167.563,399.73z"/>
		</g>
	</g>
</g>
</svg>
