<?xml version="1.0" encoding="utf-8"?>
<!-- Generator: Adobe Illustrator 16.0.2, SVG Export Plug-In . SVG Version: 6.00 Build 0)  -->
<!DOCTYPE svg PUBLIC "-//W3C//DTD SVG 1.1//EN" "http://www.w3.org/Graphics/SVG/1.1/DTD/svg11.dtd">
<svg version="1.1" id="Layer_1" xmlns="http://www.w3.org/2000/svg" xmlns:xlink="http://www.w3.org/1999/xlink" x="0px" y="0px"
	 width="512px" height="512px" viewBox="0 0 512 512" enable-background="new 0 0 512 512" xml:space="preserve">
<g>
	<path fill="#848484" d="M421.379,384.382V90.321c0-31.379-25.53-56.91-56.912-56.91H91.868c-31.378,0-56.91,25.53-56.91,56.91
		v44.298h87.325v294.06c0,31.381,25.53,56.91,56.91,56.91h240.94c31.38,0,56.908-25.529,56.908-56.91v-44.297H421.379
		L421.379,384.382z M122.283,108.125H61.453V90.321c0-16.771,13.645-30.415,30.416-30.415c16.772,0,30.416,13.645,30.416,30.415
		L122.283,108.125L122.283,108.125z M209.609,428.68c0,16.771-13.645,30.416-30.417,30.416c-16.771,0-30.416-13.646-30.416-30.416
		V90.321c0-11.182-3.252-21.61-8.845-30.415h224.535c16.771,0,30.415,13.645,30.415,30.415v294.061H209.609V428.68z M450.548,428.68
		c0,16.771-13.643,30.416-30.415,30.416H227.276c5.59-8.805,8.828-19.239,8.828-30.416v-17.801h214.444V428.68z"/>
</g>
</svg>
