<?xml version="1.0" encoding="utf-8"?>
<!-- Generator: Adobe Illustrator 16.0.2, SVG Export Plug-In . SVG Version: 6.00 Build 0)  -->
<!DOCTYPE svg PUBLIC "-//W3C//DTD SVG 1.1//EN" "http://www.w3.org/Graphics/SVG/1.1/DTD/svg11.dtd">
<svg version="1.1" id="Layer_1" xmlns="http://www.w3.org/2000/svg" xmlns:xlink="http://www.w3.org/1999/xlink" x="0px" y="0px"
	 width="512px" height="512px" viewBox="0 0 512 512" enable-background="new 0 0 512 512" xml:space="preserve">
<g>
	<path fill="#848484" d="M506.39,332.442l-0.016-15.558c0-1.524-0.335-2.839-0.632-3.863c0.291-1.225,0.637-2.729,0.639-4.438
		c0.049-31.691,0.049-63.831,0-95.524c-0.002-1.771-0.373-3.322-0.674-4.585l-0.002-0.012c0.298-1.224,0.667-2.745,0.669-4.5
		c0.03-18.711,0.032-37.424,0.035-56.136c0.002-13.233,0.004-26.467,0.016-39.699c0.025-27.913-20.894-49.417-48.659-50.021
		c-4.956-0.108-9.851-0.163-14.546-0.163c-2.187,0-4.373,0.012-6.596,0.036c0.073-6.638,0.127-13.984-0.132-21.181
		C435.841,18.796,422.218,5.73,404.094,5.73l-0.279,0.001c-17.175,0.135-30.979,13.983-31.43,31.525
		c-0.126,4.95-0.113,9.942-0.102,14.847c0.005,1.987,0.01,3.975,0.005,6l-220.706,0.004c-1.482,0-2.964-0.012-4.445-0.026
		c-2.459-0.021-5.037-0.038-7.188-0.01c0.077-7.245,0.12-14.875-0.065-22.435c-0.363-14.76-13.715-28.678-28.574-29.785
		c-0.985-0.073-1.972-0.11-2.934-0.11c-18.698,0-32.415,13.812-32.615,32.842c-0.073,6.962-0.081,13.353-0.025,19.469
		c-2.409-0.037-5.09,0.006-7.684,0.063l-0.151,0.004c-1.907,0.041-3.82,0.03-5.746,0.017l-0.272-0.001
		c-0.846-0.005-1.693-0.01-2.539-0.01c-3.894,0-8.081,0.092-12.312,0.754C22.842,62.666,5.476,84.051,5.74,109.727
		c0.265,25.842,0.193,52.139,0.124,77.582c-0.031,11.274-0.062,22.549-0.065,33.824l0,2.315
		c-0.008,26.009-0.017,55.488,0.038,83.866c0.004,1.865,0.398,3.523,0.715,4.856c-0.326,1.102-0.715,2.544-0.731,4.194
		c-0.062,6.758-0.047,13.554-0.033,20.126l0.041,36.984c0.024,27.824,0.05,56.594,0.152,84.894
		c0.039,10.667,3.757,20.657,11.055,29.694c1.492,1.845,3.308,2.984,4.767,3.901l0.208,0.136c0.565,1.075,1.406,2.494,2.906,3.647
		c9.052,6.983,19.613,10.523,31.391,10.523h0.042c48.831-0.037,97.661-0.042,146.492-0.042l35.883,0.001l70.434-0.001
		c1.01,0,2.019-0.037,3.023-0.076l0.16-0.007c0.799-0.03,1.6-0.061,2.437-0.061c15.027,0.014,30.055,0.037,45.082,0.06
		c32.747,0.049,65.506,0.101,98.245,0.051c26.115-0.04,48.224-22.201,48.28-48.392C506.473,415.941,506.432,373.493,506.39,332.442z
		 M35.236,355.34L35.2,333.066c-0.003-1.876-0.352-3.522-0.659-4.978l-0.047-0.237c0.306-1.098,0.688-2.557,0.69-4.223
		c0.048-36.877,0.053-73.75,0.057-110.625l0.002-30.551c-0.001-8.286-0.002-16.573,0.002-24.858h441.733l-0.004,8.382
		c-0.007,7.395-0.013,15.041,0.047,22.576c0.015,1.726,0.377,3.239,0.682,4.466c-0.31,1.102-0.681,2.545-0.682,4.188
		c-0.047,42.205-0.047,85.004,0,127.211c0.002,1.686,0.396,3.152,0.73,4.315l-0.071,0.376c-0.293,1.443-0.659,3.241-0.661,5.19
		c-0.028,23.142-0.028,46.279-0.027,69.42c0,17.261,0,34.518-0.011,51.777c-0.007,10.448-5.355,17.896-14.678,20.434
		c-2.071,0.563-4.53,0.839-7.517,0.843c-18.022,0.029-36.04,0.036-54.062,0.036l-61.485-0.009l-148.892,0.016
		c-12.354,0-24.708-0.006-37.061-0.01h-1.289c-31.749-0.014-63.479-0.026-95.316,0.048c-4.966,0-9.729-1.558-14.972-4.896
		c-5.548-6.266-6.646-13.904-6.579-23.43C35.349,417.383,35.292,385.842,35.236,355.34z M105.153,59.041
		c-0.005-6.662-0.011-13.323,0.021-19.984c0.019-3.854,1.761-3.874,2.612-3.874l0.115,0.001c0.712,0.015,2.606,0.053,2.615,3.869
		c0.032,14.031,0.014,28.062-0.005,42.092l-0.012,9.413c-0.001,1.064,0.032,2.136,0.068,3.214c0.071,2.217,0.139,4.312-0.174,6.058
		c-0.293,1.634-0.784,1.91-2.108,1.91c-0.235,0-0.476-0.015-0.728-0.044c-1.266-0.142-2.349-1.4-2.364-2.744
		c-0.08-7.203-0.064-14.548-0.048-21.678l0.001-0.716c0.005-2.713,0.011-5.426,0.011-8.139L105.153,59.041z M35.259,119.369
		c-0.039-4.866-0.074-9.461,0.448-13.934c1.264-10.804,8.682-17.503,19.844-17.92c2.426-0.09,5.022-0.131,8.416-0.131
		c1.576,0,3.152,0.008,4.731,0.017l0.469,0.002c2.195,0.012,4.371,0.023,6.598,0.008c-0.006,4.37,0.025,9.303,0.203,14.178
		c0.413,11.35,7.731,21.443,17.765,26.301c-5.715-0.007-11.43-0.011-17.146-0.011c-15.895,0-29.095,0.036-41.374,0.112
		C35.304,125.076,35.281,122.184,35.259,119.369z M139.705,87.459c1.363,0.026,2.818,0.039,4.456,0.039
		c1.938,0,3.875-0.017,5.813-0.036c1.9-0.017,3.8-0.035,5.7-0.035l216.657-0.008c0.047,1.505,0.056,3.024,0.064,4.544
		c0.032,5.004,0.065,10.178,1.28,15.352c2.303,9.828,8.822,17.274,17.766,20.995c-57.452-0.062-114.907-0.149-172.36-0.237
		c-32.464-0.05-64.926-0.099-97.39-0.144c10.523-4.674,17.407-14.419,17.95-26.779C139.822,97.005,139.843,92.613,139.705,87.459z
		 M436.576,91.64v-0.143c-0.005-1.417-0.008-2.78,0.008-4.123l1.019-0.009c2.222-0.021,4.447-0.041,6.669-0.041
		c4.102,0,9.491,0.062,14.821,0.543c9.938,0.899,16.631,7.493,17.469,17.212c0.54,6.262,0.406,12.619,0.267,19.35
		c-0.024,1.149-0.047,2.312-0.067,3.486c-5.585,0.044-11.171,0.095-16.754,0.148l-0.289,0.003
		c-13.665,0.126-27.78,0.257-41.689,0.265c10.055-4.629,17.553-15.053,18.344-26.812C436.596,98.177,436.586,94.872,436.576,91.64z
		 M407.328,74.948l0.001,2.427c0.001,7.173,0.003,14.347-0.005,21.52c-0.003,2.021-0.904,3.005-2.743,3.005
		c-1.904-0.014-2.954-1.055-2.952-2.931c0.006-9.573,0.024-19.146,0.041-28.718c0.019-10.124,0.037-20.248,0.043-30.368
		c0.004-3.313,0.719-3.795,1.146-4.083c0.58-0.39,1.092-0.58,1.562-0.58c0.442,0,0.989,0.166,1.578,0.479
		c0.591,0.314,1.148,0.611,1.156,2.521c0.025,7.268,0.02,14.536,0.016,21.804l-0.004,14.923H407.328z"/>
	<path fill="#848484" d="M200.986,334.979c0.008,0.02,0.016,0.043,0.023,0.064c-2.143,13.925-4.478,28.041-6.736,41.696
		l-1.044,6.322c-1.11,6.716,0.906,12.136,5.83,15.669c2.605,1.874,5.435,2.822,8.41,2.822c2.717,0,5.446-0.783,8.343-2.396
		c4.165-2.316,8.346-4.608,12.527-6.899l0.436-0.239c8.25-4.518,16.779-9.188,25.083-14.011c0.982-0.57,1.763-0.859,2.32-0.859
		c0.576,0,1.404,0.309,2.461,0.918c8.312,4.801,16.776,9.46,24.964,13.967l0.74,0.408c3.982,2.195,7.966,4.389,11.937,6.603
		c3.09,1.725,5.829,2.527,8.621,2.527c2.854,0,5.571-0.88,8.079-2.618c5.236-3.633,7.27-9.16,6.046-16.426
		c-1.068-6.318-2.101-12.642-3.148-19.065c-1.44-8.828-3.07-18.826-4.755-28.401c0.072-0.072,0.157-0.156,0.254-0.254
		c12.755-12.942,23.192-23.681,32.849-33.79c1.743-1.823,2.862-3.852,3.85-5.639l0.065-0.119c0.325-0.586,0.647-1.172,1-1.733
		l1.171-1.874l-0.282-2.195c-1.042-8.076-6.391-13.229-15.063-14.508c-6.36-0.939-12.715-1.908-19.089-2.88l-0.271-0.043
		c-7.982-1.215-16.236-2.471-24.371-3.649c-0.83-0.119-0.83-0.119-1.2-0.928c-4.213-9.188-8.663-18.691-12.589-27.075l-0.404-0.865
		c-2.178-4.652-4.355-9.304-6.521-13.961c-1.196-2.57-4.833-10.391-14.315-10.391l-0.37,0.005
		c-9.273,0.213-12.838,7.87-14.011,10.386c-2.082,4.465-4.174,8.925-6.267,13.385l-0.397,0.848
		c-4.25,9.061-8.645,18.431-12.882,27.696c-0.351,0.767-0.351,0.767-1.242,0.897c-5.813,0.855-11.619,1.749-17.425,2.644
		l-0.182,0.028c-8.286,1.278-16.853,2.598-25.274,3.769c-2.828,0.393-11.435,1.591-14.466,10.242
		c-3.014,8.607,3.024,14.73,5.008,16.742C181.66,314.945,191.628,325.188,200.986,334.979z M285.853,318.726
		c-4.208,3.881-5.818,8.961-4.781,15.097c1.469,8.69,2.92,17.52,4.218,25.449c-3.796-2.078-7.565-4.146-11.332-6.218
		c-1.465-0.808-2.92-1.631-4.379-2.455c-2.057-1.166-4.115-2.33-6.195-3.447c-2.278-1.225-4.675-1.847-7.12-1.847
		c-2.803,0-5.544,0.781-8.384,2.392c-6.879,3.9-13.891,7.793-20.785,11.608l2.114-12.832c0.742-4.495,1.483-8.992,2.194-13.491
		c0.845-5.333-0.737-10.059-4.7-14.043c-6.194-6.227-12.595-12.838-18.242-18.673l-0.221-0.227c1.887-0.312,3.749-0.613,5.613-0.901
		c5.134-0.796,10.606-1.589,17.744-2.575c7.073-0.975,12.061-4.724,14.827-11.145c3.093-7.18,6.51-14.366,9.826-21.328l0.559,1.186
		c3.051,6.476,6.204,13.172,8.949,19.821c2.735,6.626,7.957,10.519,15.521,11.569c7.473,1.041,14.918,2.168,22.792,3.367
		l-13.384,13.778c-0.465,0.48-0.927,0.963-1.425,1.485C288.093,316.521,286.99,317.678,285.853,318.726z"/>
</g>
</svg>
