<?xml version="1.0" encoding="utf-8"?>
<!-- Generator: Adobe Illustrator 16.0.2, SVG Export Plug-In . SVG Version: 6.00 Build 0)  -->
<!DOCTYPE svg PUBLIC "-//W3C//DTD SVG 1.1//EN" "http://www.w3.org/Graphics/SVG/1.1/DTD/svg11.dtd">
<svg version="1.1" id="Layer_1" xmlns="http://www.w3.org/2000/svg" xmlns:xlink="http://www.w3.org/1999/xlink" x="0px" y="0px"
	 width="512px" height="512px" viewBox="0 0 512 512" enable-background="new 0 0 512 512" xml:space="preserve">
<g>
	<path fill="#858585" d="M263.695,173.064c1.328-1.79,3.129-3.542,5.071-4.936c7.416-5.318,15.027-10.672,22.382-15.849
		c6.561-4.615,13.342-9.386,19.993-14.135c2.242-1.602,3.822-3.465,5.215-5.112c0.484-0.571,0.988-1.173,1.563-1.786l6.27-6.728
		l-6.477-6.533c-0.703-0.713-1.307-1.364-1.854-1.954c-1.322-1.429-2.694-2.907-4.496-4.243
		c-38.618-28.625-78.561-58.174-118.711-87.825c-3.012-2.224-7.646-5.086-13.094-4.27c-8.445,1.265-11.188,9.627-12.092,12.375
		c-2.048,6.239-4.071,12.487-6.095,18.733c-3.255,10.039-6.618,20.42-10.021,30.574c-0.738,2.202-1.894,4.435-3.255,6.288
		c-6.829,9.297-13.882,18.704-20.702,27.802c-13.794,18.398-28.058,37.424-41.374,56.744
		c-17.208,24.968-34.767,42.136-55.254,54.029c-3.779,2.194-7.147,4.693-10.406,7.111c-1.182,0.878-2.365,1.756-3.561,2.611
		c-2.551,1.824-8.523,6.094-8.583,13.34c-0.06,7.243,5.814,11.586,8.32,13.442c39.406,29.158,78.831,58.293,118.266,87.41
		c3.392,2.506,7.977,5.274,13.374,4.466c8.411-1.259,11.137-9.511,12.164-12.619c2.1-6.356,4.172-12.723,6.244-19.091
		c3.165-9.728,6.437-19.785,9.755-29.615c0.827-2.454,2.074-4.875,3.51-6.826C206.888,249.717,235.099,211.564,263.695,173.064z
		 M251.597,145.102c-4.165,3.012-7.814,6.551-10.557,10.235c-28.261,38.006-56.848,76.668-84.966,114.913
		c-2.737,3.719-5.056,8.246-6.707,13.082c-3.684,10.811-7.23,21.711-10.66,32.274l-90.427-66.845
		c3.75-2.708,7.583-5.39,11.476-7.755c14.351-8.722,26.687-20.669,38.812-37.599c14.784-20.627,30.188-41.381,45.086-61.452
		c8.908-12,18.12-24.411,27.115-36.682c3.27-4.462,5.987-9.675,7.858-15.074c3.596-10.372,6.965-20.791,10.224-30.889l89.862,66.569
		C269.854,132.093,260.716,138.506,251.597,145.102z"/>
	<path fill="#858585" d="M501.236,371.104c-5.547-3.974-11.147-8.143-16.565-12.171c-2.301-1.713-4.601-3.422-6.909-5.129
		l-39.895-29.496c-49.042-36.262-98.084-72.52-147.128-108.777c-3.65-2.696-8.19-6.054-13.968-5.188
		c-5.709,0.854-8.999,5.296-11.401,8.538c-4.448,6.004-8.886,12.017-13.326,18.029c-9.363,12.685-19.043,25.798-28.651,38.606
		c-1.188,1.585-4.798,6.396-3.876,12.683c0.926,6.309,5.825,9.922,7.434,11.11c44.145,32.568,88.262,65.184,132.378,97.796
		c26.399,19.515,52.801,39.029,79.21,58.542c1.788,1.318,3.547,2.145,5.098,2.871c0.513,0.242,1.047,0.491,1.589,0.775l5.979,3.104
		l4.941-4.583c0.396-0.365,0.79-0.698,1.167-1.018c1.21-1.025,2.714-2.301,4.051-4.099c6.383-8.588,12.743-17.188,19.105-25.786
		c8.093-10.946,16.189-21.896,24.325-32.809c3.033-4.066,4.244-8.218,3.604-12.343C507.758,377.641,505.349,374.058,501.236,371.104
		z M473.336,387.496l-27.254,37.014L254.975,283.176l27.343-36.986L473.336,387.496z"/>
</g>
<rect x="0" y="594.314" fill="#FF0000" width="28.685" height="8.263"/>
<path fill="#858585" d="M292.748,452.233c0,0.866-1.258,1.567-2.812,1.567H9.079c-1.552,0-2.812-0.701-2.812-1.567v-21.545
	c0-0.865,1.259-1.566,2.812-1.566h280.858c1.554,0,2.812,0.701,2.812,1.566V452.233z"/>
</svg>
