<?xml version="1.0" encoding="utf-8"?>
<!-- Generator: Adobe Illustrator 16.0.2, SVG Export Plug-In . SVG Version: 6.00 Build 0)  -->
<!DOCTYPE svg PUBLIC "-//W3C//DTD SVG 1.1//EN" "http://www.w3.org/Graphics/SVG/1.1/DTD/svg11.dtd">
<svg version="1.1" id="Layer_1" xmlns="http://www.w3.org/2000/svg" xmlns:xlink="http://www.w3.org/1999/xlink" x="0px" y="0px"
	 width="512px" height="512px" viewBox="0 0 512 512" enable-background="new 0 0 512 512" xml:space="preserve">
<g>
	<g>
		<path fill="#848484" d="M486.541,195.198c-18.224-15.292-45.493-12.9-60.757,5.291l-41.027,48.549V108.257
			c0-11.799-4.907-23.226-13.461-31.351l-54.753-52.011c-8.071-7.667-18.646-11.891-29.779-11.891H53.241
			C29.399,13.005,10,32.404,10,56.247v405.507c0,23.841,19.398,43.24,43.241,43.24h288.275c23.843,0,43.241-19.399,43.241-43.24
			v-78.759c1.771-2.099,106.782-126.485,107.114-126.878C507.234,237.81,504.853,210.561,486.541,195.198z M298.276,47.301
			c57.669,54.781,53.572,50.777,54.653,52.188h-54.653V47.301z M355.93,461.754c0,7.946-6.467,14.414-14.414,14.414H53.241
			c-7.948,0-14.414-6.468-14.414-14.414V56.247c0-7.948,6.466-14.414,14.414-14.414h216.207v72.068
			c0,7.961,6.452,14.414,14.414,14.414h72.067v154.834c-6.192,7.326-55.906,66.154-61.279,72.513
			c-4.293,5.116-7.381,11.254-8.933,17.747l-13.396,56.078c-1.267,5.31,0.574,10.882,4.756,14.39
			c4.187,3.514,9.993,4.353,14.997,2.186l52.899-22.932c3.972-1.722,7.675-4.06,10.956-6.871V461.754z M321.647,368.381
			l22.08,18.527l-4.91,5.815c-1.43,1.705-3.267,3.073-5.308,3.959l-26.449,11.466l6.698-28.039c0.518-2.165,1.548-4.212,2.945-5.877
			L321.647,368.381z M362.322,364.88l-22.069-18.518c2.239-2.649,74.663-88.352,79.671-94.278l22.024,18.48L362.322,364.88z
			 M469.818,237.555l-9.272,10.983l-22.014-18.471l9.304-11.009c5.083-6.057,14.136-6.847,20.177-1.777
			C474.174,222.449,474.853,231.552,469.818,237.555z"/>
	</g>
</g>
</svg>
