<?xml version="1.0" encoding="utf-8"?>
<!-- Generator: Adobe Illustrator 16.0.2, SVG Export Plug-In . SVG Version: 6.00 Build 0)  -->
<!DOCTYPE svg PUBLIC "-//W3C//DTD SVG 1.1//EN" "http://www.w3.org/Graphics/SVG/1.1/DTD/svg11.dtd">
<svg version="1.1" id="Layer_1" xmlns="http://www.w3.org/2000/svg" xmlns:xlink="http://www.w3.org/1999/xlink" x="0px" y="0px"
	 width="512px" height="512px" viewBox="0 0 512 512" enable-background="new 0 0 512 512" xml:space="preserve">
<path fill="#848484" d="M458.412,86.893H53.588c-25.762,0-46.716,20.941-46.716,46.703v280.272
	c0,25.762,20.955,46.704,46.716,46.704h404.824c25.762,0,46.716-20.942,46.716-46.704V133.596
	C505.128,107.834,484.174,86.893,458.412,86.893z M458.412,118.024c2.122,0,4.129,0.447,5.97,1.214L256,299.84L47.618,119.239
	c1.828-0.767,3.848-1.214,5.971-1.214L458.412,118.024L458.412,118.024z M458.412,429.44H53.588c-8.591,0-15.572-6.98-15.572-15.572
	V152.135l207.782,180.076c2.94,2.531,6.571,3.811,10.202,3.811s7.262-1.267,10.202-3.811l207.781-180.076v261.733
	C473.983,422.46,467.003,429.44,458.412,429.44z"/>
</svg>
