<?xml version="1.0" encoding="utf-8"?>
<!-- Generator: Adobe Illustrator 16.0.2, SVG Export Plug-In . SVG Version: 6.00 Build 0)  -->
<!DOCTYPE svg PUBLIC "-//W3C//DTD SVG 1.1//EN" "http://www.w3.org/Graphics/SVG/1.1/DTD/svg11.dtd">
<svg version="1.1" id="Layer_1" xmlns="http://www.w3.org/2000/svg" xmlns:xlink="http://www.w3.org/1999/xlink" x="0px" y="0px"
	 width="512px" height="512px" viewBox="0 0 512 512" enable-background="new 0 0 512 512" xml:space="preserve">
<path fill-rule="evenodd" clip-rule="evenodd" fill="#5D5D5D" d="M504.409,257.257c0.386-40.17,1.416-37.084-36.575-43.943
	c-14.219-2.569-23.699-7.036-26.605-22.983c-1.828-10.025-8.671-19.04-12.123-28.906c-1.451-4.148-1.503-10.162,0.498-13.876
	c5.377-9.985,12.157-19.219,18.472-28.688c6.016-9.021,5.194-17.08-2.668-24.691c-9.127-8.836-18.148-17.791-26.918-26.979
	c-8.037-8.418-16.541-8.721-25.864-2.592c-9.147,6.011-17.999,12.563-27.59,17.753c-3.774,2.042-9.744,2.568-13.773,1.137
	c-13.56-4.813-26.89-10.411-39.875-16.615c-3.93-1.877-8.049-6.203-9.306-10.267c-3.218-10.396-5.19-21.224-7.079-31.979
	c-2.119-12.073-8.956-17.157-21.042-16.62c-10.059,0.45-20.151,0.087-30.229,0.09c-21.484,0-24.597,1.261-27.294,22.818
	c-2.9,23.181-10.206,40.618-36.293,43.767c-2.9,0.349-6.011,1.885-8.313,3.75c-12.914,10.452-23.694,6.042-35.817-2.654
	c-32.647-23.419-30.526-19.949-56.022,5.395c-24.106,23.964-27.38,22.949-4.572,53.996c9.843,13.401,12.486,24.545,2.25,38.1
	c-2.563,3.394-4.594,7.802-5.166,11.978c-2.676,19.559-14.368,26.245-33.142,29.073c-31.283,4.714-31.069,6.057-31.088,37.648
	c-0.025,44.771-3.8,38.29,38.756,47.23c12.27,2.575,21.119,5.568,22.957,19.771c0.869,6.718,3.729,13.915,7.776,19.335
	c10.806,14.467,7.319,26.479-3.167,39.182c-6.256,7.58-10.649,16.697-17.203,27.257c7.086,8.259,12.943,16.045,19.766,22.865
	c30.467,30.458,24.501,32.045,61.858,6.474c10.283-7.039,18.69-10.096,30.412-2.313c8.904,5.914,20.379,7.812,30.046,12.785
	c4.606,2.371,9.498,7.141,11.059,11.881c3.536,10.725,5.14,22.096,7.427,33.225c1.987,9.668,8.155,14.139,17.682,14.241
	c12.703,0.136,25.415-0.16,38.115,0.12c12.588,0.28,19.827-5.214,21.406-17.953c0.535-4.321,2.193-8.527,2.524-12.849
	c1.388-18.063,7.791-31.479,28.216-33.882c4.601-0.539,9.558-2.639,13.255-5.457c13.321-10.146,24.273-6.912,37.276,2.179
	c31.551,22.058,28.06,22.292,55.846-5.491c25.124-25.124,26.913-22.742,4.706-53.832c-8.979-12.567-13.428-23.294-3.129-37.173
	c4.281-5.772,6.971-13.398,8.268-20.565c2.436-13.456,10.113-19.221,23.103-19.607c2.139-0.064,4.224-1.151,6.378-1.485
	C509.608,292.03,504.121,287.086,504.409,257.257z M486.987,270.707c-0.214,2.949-4.312,7.198-7.41,8.074
	c-11.338,3.203-23.346,4.262-34.407,8.12c-5.61,1.957-11.581,7.269-14.188,12.623c-7.62,15.646-14.354,31.831-19.894,48.324
	c-2.048,6.089-1.902,14.683,0.919,20.282c6.235,12.376,14.806,23.579,22.402,35.229c-10.646,10.367-20.634,20.093-31.15,30.337
	c-11.363-7.437-22.574-16.07-34.987-22.313c-5.563-2.8-14.163-2.687-20.29-0.635c-16.085,5.387-31.429,12.942-47.352,18.866
	c-7.633,2.841-12.729,6.299-14.025,15.134c-1.71,11.663-4.317,23.257-7.554,34.59c-0.876,3.064-5.274,7.022-8.297,7.24
	c-11.713,0.843-23.521,0.343-36.094,0.343c-2.973-14.06-6.134-27.199-8.425-40.487c-1.611-9.343-6.477-14.036-15.468-17.141
	c-15.624-5.397-30.976-11.819-45.876-18.98c-8.123-3.905-14.624-3.985-21.944,1.058c-11.131,7.671-22.606,14.846-36.331,23.792
	c-8.23-8.93-16.856-17.567-24.44-27.038c-1.851-2.313-1.673-8.149-0.044-11.006c5.843-10.246,13.689-19.44,18.771-29.998
	c2.537-5.266,2.52-13.253,0.542-18.921c-5.731-16.436-12.441-32.608-20.053-48.261c-2.625-5.399-8.319-10.922-13.865-12.938
	c-10.585-3.85-21.988-5.8-33.212-7.429c-7.917-1.148-9.716-4.939-9.898-12.264c-0.81-32.531-1.124-33.178,31.335-39.012
	c15.842-2.846,25.59-8.504,29.229-25.852c2.8-13.353,10.264-25.919,16.803-38.223c4.044-7.612,4.107-13.612-0.841-20.551
	c-6.602-9.26-13.151-18.667-18.441-28.688c-1.733-3.28-1.151-10.141,1.23-12.87c22.654-25.947,22.828-25.785,51.409-6.992
	c6.21,4.084,12.461,8.104,16.25,10.568c22.544-8.734,43.413-16.238,63.682-25.113c4.625-2.024,8.764-8.3,10.352-13.47
	c3.325-10.817,4.982-22.171,6.971-33.366c1.191-6.697,4.419-9.098,11.471-9.36c34-1.259,34.841-1.626,40.227,31.768
	c2.644,16.399,9.115,25.077,25.976,28.855c13.343,2.993,25.289,11.77,38.412,16.394c5.711,2.014,12.831,0.234,19.283-0.221
	c1.516-0.105,2.905-1.842,4.374-2.798c34.316-22.372,34.317-22.369,62.213,10.019c-7.089,10.884-14.142,22.323-21.83,33.317
	c-5.676,8.115-5.682,15.209-1.136,24.265c7.217,14.367,13.239,29.451,18.389,44.697c3.071,9.093,7.938,13.732,17.226,15.336
	c13.254,2.289,26.355,5.445,40.342,8.405C487.341,247.196,487.842,259.002,486.987,270.707z"/>
<path fill-rule="evenodd" clip-rule="evenodd" fill="#5D5D5D" d="M257.124,102.46c85.063,0.334,153.787,69.655,153.087,154.411
	c-0.702,84.827-70.086,153.28-155.025,152.945c-84.783-0.333-153.471-69.979-152.764-154.889
	C103.136,169.249,171.244,102.121,257.124,102.46z M393.116,255.752c-0.114-75.433-62.236-137.389-137.433-137.065
	c-74.562,0.318-136.689,62.336-136.89,136.646c-0.205,75.883,61.949,137.508,138.43,137.251
	C332.162,392.331,393.23,330.84,393.116,255.752z"/>
</svg>
