<?xml version="1.0" encoding="utf-8"?>
<!-- Generator: Adobe Illustrator 16.0.2, SVG Export Plug-In . SVG Version: 6.00 Build 0)  -->
<!DOCTYPE svg PUBLIC "-//W3C//DTD SVG 1.1//EN" "http://www.w3.org/Graphics/SVG/1.1/DTD/svg11.dtd">
<svg version="1.1" id="Layer_1" xmlns="http://www.w3.org/2000/svg" xmlns:xlink="http://www.w3.org/1999/xlink" x="0px" y="0px"
	 width="512px" height="513.789px" viewBox="0 0 512 513.789" enable-background="new 0 0 512 513.789" xml:space="preserve">
<path fill="#848484" d="M450.513,452.479c-0.016-43.266-0.041-89.819-0.125-137.084c-0.001-1.02-0.211-2.01-0.641-3.007
	c0.357-1.18,0.728-2.652,0.729-4.337c0.071-42.581,0.068-84.564-0.008-124.782c-0.003-1.665-0.4-3.114-0.851-4.379
	c0.5-1.116,0.745-2.211,0.746-3.326c0.089-50.536,0.152-104.783,0.021-159.062c-0.012-3.511-1.632-9.604-6.046-11.994
	c-1.343-0.727-2.904-1.095-4.641-1.095c-2.857,0-6.189,1.015-8.697,2.65c-14.325,9.361-29.486,19.487-49.063,32.77
	c-10.687-7.237-21.574-14.525-32.11-21.577l-3.104-2.078c-4.931-3.301-9.862-6.602-14.79-9.912
	c-4.489-3.014-9.55-2.979-14.089,0.102c-3.435,2.33-6.89,4.628-10.347,6.925c-3.528,2.345-7.057,4.691-10.563,7.072
	c-1.861,1.265-3.588,2.613-5.264,3.921c-0.466,0.364-0.934,0.726-1.402,1.087c-0.652,0.217-1.568,0.56-2.494,1.171l-3.783,2.5
	c-5.264,3.473-10.695,7.058-16.004,10.739c-7.27-4.908-14.662-9.845-21.82-14.625l-0.084-0.057
	c-8.933-5.965-18.169-12.133-27.212-18.277c-5.306-3.605-10.336-3.589-15.714,0.057c-15.561,10.538-32.093,21.59-49.155,32.86
	c-16.764-11.091-33.192-22.172-48.47-32.51C103.63,4.945,100.756,3,96.985,3c-1.837,0-3.638,0.466-5.353,1.384
	c-6.189,3.313-6.145,9.614-6.124,12.642l0.107,15.515c0.126,17.889,0.27,38.165,0.313,57.735c0.012,5.635-0.097,11.535-0.193,16.741
	l-0.004,0.211c-0.099,5.405-0.201,10.994-0.191,16.519c0.062,39.818,0.142,79.638,0.223,119.457
	c0.095,46.828,0.189,93.655,0.253,140.481c0.011,8.348-0.119,16.821-0.245,25.016l-0.007,0.418
	c-0.096,6.249-0.194,12.711-0.227,19.076c-0.063,11.511-0.047,23.211-0.033,34.525l0.003,2.572c0.005,4.063,0.01,8.128,0.011,12.192
	c0,1.386-0.012,2.773-0.023,4.159c-0.03,3.455-0.062,7.028,0.099,10.617c0.304,6.77,5.084,11.682,11.366,11.681c0,0,0,0,0,0
	c2.456,0,4.932-0.789,7.162-2.281l0.479-0.321c15.357-10.286,32.736-21.926,49.485-33.309c10.855,7.371,21.92,14.78,32.63,21.952
	l1.286,0.86c5.312,3.557,10.621,7.112,15.926,10.677c4.55,3.057,9.706,3.102,14.141,0.131l10.082-6.759
	c13.057-8.75,26.55-17.793,39.898-26.862c12.141,8.254,24.519,16.549,36.497,24.577l0.418,0.28c4.31,2.888,8.618,5.775,12.928,8.669
	c4.54,3.045,9.705,3.071,14.145,0.086l4.688-3.156c14.798-9.961,30.089-20.253,45.212-30.292c6.554,4.34,13.173,8.766,19.591,13.058
	l0.114,0.076c9.576,6.404,19.478,13.026,29.433,19.537c2.374,1.552,5.637,2.516,8.52,2.516c1.683,0,3.209-0.317,4.535-0.942
	c4.74-2.228,6.119-8.638,6.186-11.716c0.231-10.521,0.218-21.192,0.205-31.511L450.513,452.479z M427.512,318.614
	c0.001,1.474,0.326,2.741,0.607,3.717l-0.004,0.019c-0.27,1.239-0.605,2.78-0.607,4.51c-0.034,42.28-0.033,84.561-0.031,126.839
	v17.118c-10.335-6.943-23.21-15.606-36.067-24.315c-3.043-2.061-5.849-3.766-9.365-3.766c-3.146,0-5.773,1.332-8.994,3.482
	l-0.583,0.391c-15.312,10.221-31.145,20.79-46.58,31.42c-0.455,0.313-0.755,0.478-0.931,0.561c-0.139-0.069-0.356-0.192-0.663-0.403
	c-7.757-5.33-15.633-10.637-23.25-15.768c-7.787-5.247-15.84-10.672-23.737-16.105c-6.349-4.364-12.253-4.361-18.584,0.013
	c-8.558,5.909-17.259,11.77-25.674,17.438c-7.077,4.767-14.396,9.694-21.647,14.666c-0.115,0.078-0.213,0.142-0.296,0.192
	c-0.089-0.054-0.195-0.122-0.32-0.207c-10.455-7.167-21.135-14.36-31.464-21.317l-0.12-0.081
	c-5.169-3.48-10.339-6.963-15.501-10.454c-3.209-2.171-6.053-3.616-9.501-3.616c-3.571,0-6.563,1.541-10.232,4.027
	c-11.462,7.763-23.049,15.55-34.255,23.081l-0.928,0.624V36.262c11.509,7.704,23.749,15.907,36.122,24.243
	c2.893,1.948,5.776,3.696,9.238,3.696c3.473,0,6.2-1.659,9.404-3.828c6.982-4.725,13.986-9.416,21-14.113l0.184-0.123
	c8.636-5.784,17.553-11.757,26.311-17.72c7.765,5.205,15.521,10.424,23.277,15.643l0.843,0.567
	c5.11,3.439,10.221,6.876,15.332,10.312c0.896,0.602,1.782,1.223,2.668,1.844c2.668,1.871,5.428,3.805,8.573,5.364
	c1.978,0.981,4.537,1.566,6.847,1.566c2.189,0,4.091-0.5,5.652-1.485c7.705-4.868,15.317-10.066,22.752-15.143
	c2.18-1.491,4.364-2.981,6.56-4.471c0.514-0.35,0.973-0.775,1.367-1.269c0.496-0.291,0.993-0.583,1.517-0.885
	c2.193-1.273,4.461-2.589,6.684-4.02c4.282-2.754,8.148-5.272,11.918-8.068c9.922,6.733,19.998,13.494,29.745,20.033
	c5.879,3.943,11.757,7.886,17.627,11.84c3.17,2.136,6.081,3.904,9.623,3.904c3.568,0,6.387-1.736,9.979-4.188
	c10.577-7.229,21.422-14.479,31.969-21.529l3.495-2.336l0.001,12.405c0,38.709,0.001,77.418,0.039,116.133
	c0.003,1.718,0.338,3.262,0.606,4.5l0.005,0.024c-0.282,0.979-0.606,2.245-0.607,3.715
	C427.473,221.228,427.473,270.262,427.512,318.614z"/>
</svg>
